<?xml version="1.0" standalone="no"?>
<!DOCTYPE svg PUBLIC "-//W3C//DTD SVG 20010904//EN"
 "http://www.w3.org/TR/2001/REC-SVG-20010904/DTD/svg10.dtd">
<svg version="1.0" xmlns="http://www.w3.org/2000/svg"
 width="203.000000pt" height="191.000000pt" viewBox="0 0 203.000000 191.000000"
 preserveAspectRatio="xMidYMid meet">

<g transform="translate(0.000000,191.000000) scale(0.100000,-0.100000)"
fill="#000000" stroke="none">
<path d="M177 1896 c-62 -17 -116 -61 -147 -122 l-25 -48 0 -771 0 -771 26
-49 c32 -62 93 -110 159 -124 71 -15 1579 -15 1650 0 66 14 127 62 159 124
l26 49 0 771 0 771 -26 49 c-32 62 -93 110 -159 124 -78 17 -1599 14 -1663 -3z
m1000 -221 c62 -18 183 -76 223 -107 104 -80 208 -208 254 -312 l25 -56 -37
-9 c-96 -24 -90 -24 -109 16 l-18 38 -88 3 c-81 3 -88 1 -83 -15 14 -46 23
-104 17 -107 -3 -2 -19 -6 -35 -7 -29 -4 -30 -2 -46 61 l-16 65 -132 3 -132 3
0 -136 0 -135 55 0 c53 0 55 -1 70 -36 8 -20 15 -38 15 -40 0 -2 -31 -4 -70
-4 l-70 0 0 -64 0 -64 -40 -4 -40 -4 0 68 0 68 -150 0 -150 0 0 -45 c0 -47 -7
-53 -43 -34 -28 15 -37 28 -37 57 0 18 -6 22 -32 22 -60 1 -111 18 -142 49
l-31 31 103 0 c90 0 102 2 102 18 0 9 9 70 19 135 l18 117 -83 0 -82 0 -30
-72 c-17 -40 -35 -100 -42 -133 l-12 -59 -24 29 c-37 46 -67 133 -59 174 25
132 201 345 350 423 174 90 402 115 582 63z m733 -545 c0 -30 -136 -665 -146
-681 -13 -22 -46 -5 -99 50 l-57 60 -92 -49 c-242 -129 -533 -139 -814 -28
-91 35 -157 77 -252 159 l-73 63 34 -64 c78 -147 222 -257 426 -326 104 -35
335 -45 457 -20 44 9 81 14 83 12 9 -8 -163 -86 -227 -103 -47 -13 -101 -18
-195 -17 -112 0 -142 4 -215 27 -318 99 -543 401 -539 724 1 104 9 113 43 50
68 -120 215 -223 383 -269 110 -29 305 -29 417 1 79 21 173 63 233 104 l31 21
-60 68 c-74 84 -73 101 10 119 31 6 174 37 317 69 143 32 277 59 298 59 35 1
37 -1 37 -29z"/>
<path d="M871 1544 c-45 -20 -120 -98 -154 -162 l-28 -52 115 0 116 0 0 115
c0 63 -3 115 -7 114 -5 0 -23 -7 -42 -15z"/>
<path d="M1000 1445 l0 -115 115 0 115 0 -15 37 c-27 64 -94 137 -157 169 -26
13 -50 24 -53 24 -3 0 -5 -52 -5 -115z"/>
<path d="M1223 1487 c21 -25 49 -71 63 -102 l25 -55 70 0 c66 0 69 1 59 19
-18 34 -107 105 -182 146 l-73 39 38 -47z"/>
<path d="M660 1494 c-65 -37 -142 -98 -168 -133 l-23 -31 70 0 70 0 21 46 c11
26 36 69 55 95 19 27 32 49 27 49 -4 0 -27 -12 -52 -26z"/>
<path d="M650 1209 c-16 -59 -30 -148 -30 -191 l0 -38 150 0 150 0 0 135 0
135 -130 0 -129 0 -11 -41z"/>
</g>
</svg>
