<?xml version="1.0" standalone="no"?>
<!DOCTYPE svg PUBLIC "-//W3C//DTD SVG 20010904//EN"
 "http://www.w3.org/TR/2001/REC-SVG-20010904/DTD/svg10.dtd">
<svg version="1.0" xmlns="http://www.w3.org/2000/svg"
 width="110.000000pt" height="99.000000pt" viewBox="0 0 110.000000 99.000000"
 preserveAspectRatio="xMidYMid meet">

<g transform="translate(0.000000,99.000000) scale(0.100000,-0.100000)"
fill="#000000" stroke="none">
<path d="M70 981 c-14 -4 -35 -22 -47 -40 -23 -34 -23 -34 -22 -440 1 -223 4
-417 8 -431 4 -14 22 -35 40 -47 l34 -23 467 0 467 0 34 23 c18 12 36 33 40
47 4 14 7 208 8 431 1 406 1 406 -22 440 -12 18 -33 36 -47 40 -33 9 -927 9
-960 0z m720 -66 c0 -9 -7 -29 -14 -44 -8 -15 -20 -50 -27 -77 -14 -59 -31
-79 -89 -109 l-44 -22 53 5 c52 5 53 4 46 -19 -39 -132 -150 -272 -292 -365
-73 -48 -87 -62 -114 -115 -17 -34 -28 -63 -26 -65 2 -3 55 14 118 36 205 74
378 101 492 77 68 -15 38 -24 -95 -30 -140 -6 -178 -14 -375 -78 -122 -39
-158 -46 -166 -31 -8 13 23 163 49 240 60 179 143 322 250 429 71 72 56 68
-30 -7 -112 -98 -177 -197 -231 -353 -17 -49 -35 -88 -41 -88 -18 -1 -35 95
-29 163 14 174 119 320 292 405 106 52 273 81 273 48z"/>
</g>
</svg>
